<svg width="224" height="40" viewBox="0 0 224 40" fill="none" xmlns="http://www.w3.org/2000/svg">
<rect width="224" height="40" rx="8" fill="white"/>
<path d="M54.544 14.928V26H53.088V17.744L49.408 26H48.384L44.688 17.728V26H43.232V14.928H44.8L48.896 24.08L52.992 14.928H54.544ZM61.0373 26.144C60.2159 26.144 59.4692 25.9573 58.7973 25.584C58.1359 25.2107 57.6132 24.6827 57.2292 24C56.8559 23.3067 56.6692 22.5067 56.6692 21.6C56.6692 20.704 56.8612 19.9147 57.2452 19.232C57.6399 18.5387 58.1732 18.0107 58.8452 17.648C59.5172 17.2747 60.2693 17.088 61.1013 17.088C61.9333 17.088 62.6853 17.2747 63.3573 17.648C64.0293 18.0107 64.5573 18.5333 64.9412 19.216C65.3359 19.8987 65.5332 20.6933 65.5332 21.6C65.5332 22.5067 65.3306 23.3067 64.9253 24C64.5306 24.6827 63.9919 25.2107 63.3093 25.584C62.6266 25.9573 61.8693 26.144 61.0373 26.144ZM61.0373 24.864C61.5599 24.864 62.0506 24.7413 62.5093 24.496C62.9679 24.2507 63.3359 23.8827 63.6133 23.392C63.9013 22.9013 64.0452 22.304 64.0452 21.6C64.0452 20.896 63.9066 20.2987 63.6293 19.808C63.3519 19.3173 62.9893 18.9547 62.5413 18.72C62.0933 18.4747 61.6079 18.352 61.0852 18.352C60.5519 18.352 60.0613 18.4747 59.6133 18.72C59.1759 18.9547 58.8239 19.3173 58.5573 19.808C58.2906 20.2987 58.1572 20.896 58.1572 21.6C58.1572 22.3147 58.2852 22.9173 58.5412 23.408C58.8079 23.8987 59.1599 24.2667 59.5972 24.512C60.0346 24.7467 60.5146 24.864 61.0373 24.864ZM70.7516 26.144C70.0796 26.144 69.477 26.032 68.9436 25.808C68.4103 25.5733 67.989 25.2533 67.6796 24.848C67.3703 24.432 67.1996 23.9573 67.1676 23.424H68.6716C68.7143 23.8613 68.917 24.2187 69.2796 24.496C69.653 24.7733 70.1383 24.912 70.7356 24.912C71.2903 24.912 71.7276 24.7893 72.0476 24.544C72.3676 24.2987 72.5276 23.9893 72.5276 23.616C72.5276 23.232 72.357 22.9493 72.0156 22.768C71.6743 22.576 71.1463 22.3893 70.4316 22.208C69.781 22.0373 69.2476 21.8667 68.8316 21.696C68.4263 21.5147 68.0743 21.2533 67.7756 20.912C67.4876 20.56 67.3436 20.1013 67.3436 19.536C67.3436 19.088 67.477 18.6773 67.7436 18.304C68.0103 17.9307 68.389 17.6373 68.8796 17.424C69.3703 17.2 69.9303 17.088 70.5596 17.088C71.5303 17.088 72.3143 17.3333 72.9116 17.824C73.509 18.3147 73.829 18.9867 73.8716 19.84H72.4156C72.3836 19.3813 72.197 19.0133 71.8556 18.736C71.525 18.4587 71.077 18.32 70.5116 18.32C69.989 18.32 69.573 18.432 69.2636 18.656C68.9543 18.88 68.7996 19.1733 68.7996 19.536C68.7996 19.824 68.8903 20.064 69.0716 20.256C69.2636 20.4373 69.4983 20.5867 69.7756 20.704C70.0636 20.8107 70.4583 20.9333 70.9596 21.072C71.589 21.2427 72.101 21.4133 72.4956 21.584C72.8903 21.744 73.2263 21.9893 73.5036 22.32C73.7916 22.6507 73.941 23.0827 73.9516 23.616C73.9516 24.096 73.8183 24.528 73.5516 24.912C73.285 25.296 72.9063 25.6 72.4156 25.824C71.9356 26.0373 71.381 26.144 70.7516 26.144ZM77.983 18.432V23.6C77.983 24.0267 78.0737 24.3307 78.255 24.512C78.4363 24.6827 78.751 24.768 79.199 24.768H80.271V26H78.959C78.1483 26 77.5403 25.8133 77.135 25.44C76.7297 25.0667 76.527 24.4533 76.527 23.6V18.432H75.391V17.232H76.527V15.024H77.983V17.232H80.271V18.432H77.983ZM83.6911 18.656C83.9471 18.1547 84.3098 17.7653 84.7791 17.488C85.2591 17.2107 85.8405 17.072 86.5231 17.072V18.576H86.1391C84.5071 18.576 83.6911 19.4613 83.6911 21.232V26H82.2351V17.232H83.6911V18.656ZM87.8599 21.584C87.8599 20.688 88.0412 19.904 88.4039 19.232C88.7665 18.5493 89.2625 18.0213 89.8919 17.648C90.5319 17.2747 91.2412 17.088 92.0199 17.088C92.7879 17.088 93.4545 17.2533 94.0199 17.584C94.5852 17.9147 95.0065 18.3307 95.2839 18.832V17.232H96.7559V26H95.2839V24.368C94.9959 24.88 94.5639 25.3067 93.9879 25.648C93.4225 25.9787 92.7612 26.144 92.0039 26.144C91.2252 26.144 90.5212 25.952 89.8919 25.568C89.2625 25.184 88.7665 24.6453 88.4039 23.952C88.0412 23.2587 87.8599 22.4693 87.8599 21.584ZM95.2839 21.6C95.2839 20.9387 95.1505 20.3627 94.8839 19.872C94.6172 19.3813 94.2545 19.008 93.7959 18.752C93.3479 18.4853 92.8519 18.352 92.3079 18.352C91.7639 18.352 91.2679 18.48 90.8199 18.736C90.3719 18.992 90.0145 19.3653 89.7479 19.856C89.4812 20.3467 89.3479 20.9227 89.3479 21.584C89.3479 22.256 89.4812 22.8427 89.7479 23.344C90.0145 23.8347 90.3719 24.2133 90.8199 24.48C91.2679 24.736 91.7639 24.864 92.3079 24.864C92.8519 24.864 93.3479 24.736 93.7959 24.48C94.2545 24.2133 94.6172 23.8347 94.8839 23.344C95.1505 22.8427 95.2839 22.2613 95.2839 21.6ZM100.872 18.656C101.128 18.1547 101.491 17.7653 101.96 17.488C102.44 17.2107 103.022 17.072 103.704 17.072V18.576H103.32C101.688 18.576 100.872 19.4613 100.872 21.232V26H99.4164V17.232H100.872V18.656ZM106.049 26.096C105.772 26.096 105.537 26 105.345 25.808C105.153 25.616 105.057 25.3813 105.057 25.104C105.057 24.8267 105.153 24.592 105.345 24.4C105.537 24.208 105.772 24.112 106.049 24.112C106.316 24.112 106.54 24.208 106.721 24.4C106.913 24.592 107.009 24.8267 107.009 25.104C107.009 25.3813 106.913 25.616 106.721 25.808C106.54 26 106.316 26.096 106.049 26.096ZM106.049 19.248C105.772 19.248 105.537 19.152 105.345 18.96C105.153 18.768 105.057 18.5333 105.057 18.256C105.057 17.9787 105.153 17.744 105.345 17.552C105.537 17.36 105.772 17.264 106.049 17.264C106.316 17.264 106.54 17.36 106.721 17.552C106.913 17.744 107.009 17.9787 107.009 18.256C107.009 18.5333 106.913 18.768 106.721 18.96C106.54 19.152 106.316 19.248 106.049 19.248Z" fill="#424242"/>
<path d="M119.344 16.64V19.44H123.104V21.216H119.344V24.176H123.584V26H117.104V14.816H123.584V16.64H119.344ZM129.212 26.144C128.486 26.144 127.836 26.016 127.26 25.76C126.684 25.4933 126.225 25.136 125.884 24.688C125.553 24.24 125.372 23.744 125.34 23.2H127.596C127.638 23.5413 127.804 23.824 128.092 24.048C128.39 24.272 128.758 24.384 129.196 24.384C129.622 24.384 129.953 24.2987 130.188 24.128C130.433 23.9573 130.556 23.7387 130.556 23.472C130.556 23.184 130.406 22.9707 130.108 22.832C129.82 22.6827 129.356 22.5227 128.716 22.352C128.054 22.192 127.51 22.0267 127.084 21.856C126.668 21.6853 126.305 21.424 125.996 21.072C125.697 20.72 125.548 20.2453 125.548 19.648C125.548 19.1573 125.686 18.7093 125.964 18.304C126.252 17.8987 126.657 17.5787 127.18 17.344C127.713 17.1093 128.337 16.992 129.052 16.992C130.108 16.992 130.95 17.2587 131.58 17.792C132.209 18.3147 132.556 19.024 132.62 19.92H130.476C130.444 19.568 130.294 19.2907 130.028 19.088C129.772 18.8747 129.425 18.768 128.988 18.768C128.582 18.768 128.268 18.8427 128.044 18.992C127.83 19.1413 127.724 19.3493 127.724 19.616C127.724 19.9147 127.873 20.144 128.172 20.304C128.47 20.4533 128.934 20.608 129.564 20.768C130.204 20.928 130.732 21.0933 131.148 21.264C131.564 21.4347 131.921 21.7013 132.22 22.064C132.529 22.416 132.689 22.8853 132.7 23.472C132.7 23.984 132.556 24.4427 132.268 24.848C131.99 25.2533 131.585 25.5733 131.052 25.808C130.529 26.032 129.916 26.144 129.212 26.144ZM138.13 26.144C137.405 26.144 136.754 26.016 136.178 25.76C135.602 25.4933 135.144 25.136 134.802 24.688C134.472 24.24 134.29 23.744 134.258 23.2H136.514C136.557 23.5413 136.722 23.824 137.01 24.048C137.309 24.272 137.677 24.384 138.114 24.384C138.541 24.384 138.872 24.2987 139.106 24.128C139.352 23.9573 139.474 23.7387 139.474 23.472C139.474 23.184 139.325 22.9707 139.026 22.832C138.738 22.6827 138.274 22.5227 137.634 22.352C136.973 22.192 136.429 22.0267 136.002 21.856C135.586 21.6853 135.224 21.424 134.914 21.072C134.616 20.72 134.466 20.2453 134.466 19.648C134.466 19.1573 134.605 18.7093 134.882 18.304C135.17 17.8987 135.576 17.5787 136.098 17.344C136.632 17.1093 137.256 16.992 137.97 16.992C139.026 16.992 139.869 17.2587 140.498 17.792C141.128 18.3147 141.474 19.024 141.538 19.92H139.394C139.362 19.568 139.213 19.2907 138.946 19.088C138.69 18.8747 138.344 18.768 137.906 18.768C137.501 18.768 137.186 18.8427 136.962 18.992C136.749 19.1413 136.642 19.3493 136.642 19.616C136.642 19.9147 136.792 20.144 137.09 20.304C137.389 20.4533 137.853 20.608 138.482 20.768C139.122 20.928 139.65 21.0933 140.066 21.264C140.482 21.4347 140.84 21.7013 141.138 22.064C141.448 22.416 141.608 22.8853 141.618 23.472C141.618 23.984 141.474 24.4427 141.186 24.848C140.909 25.2533 140.504 25.5733 139.97 25.808C139.448 26.032 138.834 26.144 138.13 26.144ZM151.897 21.376C151.897 21.696 151.876 21.984 151.833 22.24H145.353C145.406 22.88 145.63 23.3813 146.025 23.744C146.42 24.1067 146.905 24.288 147.481 24.288C148.313 24.288 148.905 23.9307 149.257 23.216H151.673C151.417 24.0693 150.926 24.7733 150.201 25.328C149.476 25.872 148.585 26.144 147.529 26.144C146.676 26.144 145.908 25.9573 145.225 25.584C144.553 25.2 144.025 24.6613 143.641 23.968C143.268 23.2747 143.081 22.4747 143.081 21.568C143.081 20.6507 143.268 19.8453 143.641 19.152C144.014 18.4587 144.537 17.9253 145.209 17.552C145.881 17.1787 146.654 16.992 147.529 16.992C148.372 16.992 149.124 17.1733 149.785 17.536C150.457 17.8987 150.974 18.416 151.337 19.088C151.71 19.7493 151.897 20.512 151.897 21.376ZM149.577 20.736C149.566 20.16 149.358 19.7013 148.953 19.36C148.548 19.008 148.052 18.832 147.465 18.832C146.91 18.832 146.441 19.0027 146.057 19.344C145.684 19.6747 145.454 20.1387 145.369 20.736H149.577ZM168.753 17.008C169.841 17.008 170.715 17.344 171.377 18.016C172.049 18.6773 172.385 19.6053 172.385 20.8V26H170.145V21.104C170.145 20.4107 169.969 19.8827 169.617 19.52C169.265 19.1467 168.785 18.96 168.177 18.96C167.569 18.96 167.083 19.1467 166.721 19.52C166.369 19.8827 166.193 20.4107 166.193 21.104V26H163.953V21.104C163.953 20.4107 163.777 19.8827 163.425 19.52C163.073 19.1467 162.593 18.96 161.985 18.96C161.366 18.96 160.875 19.1467 160.513 19.52C160.161 19.8827 159.985 20.4107 159.985 21.104V26H157.745V17.136H159.985V18.208C160.273 17.8347 160.641 17.5413 161.089 17.328C161.547 17.1147 162.049 17.008 162.593 17.008C163.286 17.008 163.905 17.1573 164.449 17.456C164.993 17.744 165.414 18.16 165.713 18.704C166.001 18.192 166.417 17.7813 166.961 17.472C167.515 17.1627 168.113 17.008 168.753 17.008ZM182.95 21.376C182.95 21.696 182.929 21.984 182.886 22.24H176.406C176.46 22.88 176.684 23.3813 177.078 23.744C177.473 24.1067 177.958 24.288 178.534 24.288C179.366 24.288 179.958 23.9307 180.31 23.216H182.726C182.47 24.0693 181.98 24.7733 181.254 25.328C180.529 25.872 179.638 26.144 178.582 26.144C177.729 26.144 176.961 25.9573 176.278 25.584C175.606 25.2 175.078 24.6613 174.694 23.968C174.321 23.2747 174.134 22.4747 174.134 21.568C174.134 20.6507 174.321 19.8453 174.694 19.152C175.068 18.4587 175.59 17.9253 176.262 17.552C176.934 17.1787 177.708 16.992 178.582 16.992C179.425 16.992 180.177 17.1733 180.838 17.536C181.51 17.8987 182.028 18.416 182.39 19.088C182.764 19.7493 182.95 20.512 182.95 21.376ZM180.63 20.736C180.62 20.16 180.412 19.7013 180.006 19.36C179.601 19.008 179.105 18.832 178.518 18.832C177.964 18.832 177.494 19.0027 177.11 19.344C176.737 19.6747 176.508 20.1387 176.422 20.736H180.63ZM178.55 15.136L176.166 16.48V14.848L178.55 13.552L180.918 14.848V16.48L178.55 15.136ZM188.177 26.144C187.452 26.144 186.801 26.016 186.225 25.76C185.649 25.4933 185.191 25.136 184.849 24.688C184.519 24.24 184.337 23.744 184.305 23.2H186.561C186.604 23.5413 186.769 23.824 187.057 24.048C187.356 24.272 187.724 24.384 188.161 24.384C188.588 24.384 188.919 24.2987 189.153 24.128C189.399 23.9573 189.521 23.7387 189.521 23.472C189.521 23.184 189.372 22.9707 189.073 22.832C188.785 22.6827 188.321 22.5227 187.681 22.352C187.02 22.192 186.476 22.0267 186.049 21.856C185.633 21.6853 185.271 21.424 184.961 21.072C184.663 20.72 184.513 20.2453 184.513 19.648C184.513 19.1573 184.652 18.7093 184.929 18.304C185.217 17.8987 185.623 17.5787 186.145 17.344C186.679 17.1093 187.303 16.992 188.017 16.992C189.073 16.992 189.916 17.2587 190.545 17.792C191.175 18.3147 191.521 19.024 191.585 19.92H189.441C189.409 19.568 189.26 19.2907 188.993 19.088C188.737 18.8747 188.391 18.768 187.953 18.768C187.548 18.768 187.233 18.8427 187.009 18.992C186.796 19.1413 186.689 19.3493 186.689 19.616C186.689 19.9147 186.839 20.144 187.137 20.304C187.436 20.4533 187.9 20.608 188.529 20.768C189.169 20.928 189.697 21.0933 190.113 21.264C190.529 21.4347 190.887 21.7013 191.185 22.064C191.495 22.416 191.655 22.8853 191.665 23.472C191.665 23.984 191.521 24.4427 191.233 24.848C190.956 25.2533 190.551 25.5733 190.017 25.808C189.495 26.032 188.881 26.144 188.177 26.144Z" fill="#001C98"/>
<path d="M199.793 17.5404C199.539 17.2865 199.128 17.2865 198.874 17.5404C198.62 17.7942 198.62 18.2058 198.874 18.4596L202.874 22.4596C203.128 22.7135 203.539 22.7135 203.793 22.4596L207.793 18.4596C208.047 18.2058 208.047 17.7942 207.793 17.5404C207.539 17.2865 207.128 17.2865 206.874 17.5404L203.333 21.0808L199.793 17.5404Z" fill="#001C98" stroke="#001C98" stroke-width="0.3" stroke-linecap="round" stroke-linejoin="round"/>
<path fill-rule="evenodd" clip-rule="evenodd" d="M11.75 17.5C11.75 17.0858 12.0858 16.75 12.5 16.75H31.5C31.9142 16.75 32.25 17.0858 32.25 17.5V28C32.25 28.9665 31.4665 29.75 30.5 29.75H13.5C12.5335 29.75 11.75 28.9665 11.75 28V17.5ZM13.25 18.25V28C13.25 28.1381 13.3619 28.25 13.5 28.25H30.5C30.6381 28.25 30.75 28.1381 30.75 28V18.25H13.25Z" fill="#424242"/>
<path fill-rule="evenodd" clip-rule="evenodd" d="M13.5 12.25C13.3619 12.25 13.25 12.3619 13.25 12.5V16.75H30.75V12.5C30.75 12.3619 30.6381 12.25 30.5 12.25H13.5ZM11.75 12.5C11.75 11.5335 12.5335 10.75 13.5 10.75H30.5C31.4665 10.75 32.25 11.5335 32.25 12.5V17.5C32.25 17.9142 31.9142 18.25 31.5 18.25H12.5C12.0858 18.25 11.75 17.9142 11.75 17.5V12.5Z" fill="#424242"/>
<path fill-rule="evenodd" clip-rule="evenodd" d="M18 9.25C18.4142 9.25 18.75 9.58579 18.75 10V14C18.75 14.4142 18.4142 14.75 18 14.75C17.5858 14.75 17.25 14.4142 17.25 14V10C17.25 9.58579 17.5858 9.25 18 9.25Z" fill="#424242"/>
<path fill-rule="evenodd" clip-rule="evenodd" d="M26 9.25C26.4142 9.25 26.75 9.58579 26.75 10V14C26.75 14.4142 26.4142 14.75 26 14.75C25.5858 14.75 25.25 14.4142 25.25 14V10C25.25 9.58579 25.5858 9.25 26 9.25Z" fill="#424242"/>
<path fill-rule="evenodd" clip-rule="evenodd" d="M23.25 25C23.25 24.5858 23.5858 24.25 24 24.25H27C27.4142 24.25 27.75 24.5858 27.75 25C27.75 25.4142 27.4142 25.75 27 25.75H24C23.5858 25.75 23.25 25.4142 23.25 25Z" fill="#424242"/>
<path fill-rule="evenodd" clip-rule="evenodd" d="M16.25 25C16.25 24.5858 16.5858 24.25 17 24.25H20C20.4142 24.25 20.75 24.5858 20.75 25C20.75 25.4142 20.4142 25.75 20 25.75H17C16.5858 25.75 16.25 25.4142 16.25 25Z" fill="#424242"/>
<path fill-rule="evenodd" clip-rule="evenodd" d="M23.25 21C23.25 20.5858 23.5858 20.25 24 20.25H27C27.4142 20.25 27.75 20.5858 27.75 21C27.75 21.4142 27.4142 21.75 27 21.75H24C23.5858 21.75 23.25 21.4142 23.25 21Z" fill="#424242"/>
<path fill-rule="evenodd" clip-rule="evenodd" d="M16.25 21C16.25 20.5858 16.5858 20.25 17 20.25H20C20.4142 20.25 20.75 20.5858 20.75 21C20.75 21.4142 20.4142 21.75 20 21.75H17C16.5858 21.75 16.25 21.4142 16.25 21Z" fill="#424242"/>
</svg>
