<svg width="173" height="39" viewBox="0 0 173 39" fill="none" xmlns="http://www.w3.org/2000/svg">
<g id="logo" clip-path="url(#clip0_7539_2057)">
<g id="Group">
<g id="Group_2">
<path id="Vector" d="M81.9 19.2C82.7 18.3 83.3 17.2 83.7 15.9C84.1 14.6 84.3 13.3 84.3 11.9C84.3 8.7 83.4 6 81.6 3.8C79.6 1.3 77 0 73.8 0L56.3 0.2V8.1H72.5C73.4 8.1 74.2 8.5 74.8 9.2C75.3 9.8 75.6 10.6 75.6 11.6C75.6 12.5 75.3 13.3 74.8 13.9C74.3 14.6 73.5 14.9 72.6 14.9H65.9V23.4H72.6C73.6 23.4 74.3 23.7 74.9 24.4C75.4 25 75.6 25.8 75.6 26.7C75.6 27.7 75.3 28.5 74.8 29.1C74.2 29.8 73.5 30.2 72.5 30.2H56.3V38.2H73.8C77.1 38.2 79.7 37 81.6 34.5C83.3 32.3 84.2 29.6 84.2 26.5C84.2 25.1 84 23.7 83.6 22.5C83.3 21.3 82.7 20.2 81.9 19.2Z" fill="white"/>
</g>
<path id="Vector_2" d="M91.3 0.700195H111.9V2.9002H93.6V18.3002H108.6V20.5002H93.6V36.3002H111.9V38.5002H91.3V0.700195Z" fill="white"/>
<path id="Vector_3" d="M118 0.700195H129C132.5 0.700195 134.3 1.1002 135.8 1.8002C138.9 3.4002 141 6.5002 141 10.8002C141 16.2002 137.9 20.2002 133.5 21.2002V21.3002C133.5 21.3002 133.9 21.7002 134.4 22.6002L142.9 38.3002H140L131.1 21.6002H120.3V38.3002H118V0.700195ZM130.5 19.6002C135.5 19.6002 138.6 16.0002 138.6 10.9002C138.6 7.60019 136.9 4.9002 134.2 3.6002C133.1 3.1002 131.9 2.8002 128.9 2.8002H120.3V19.5002H130.5V19.6002Z" fill="white"/>
<path id="Vector_4" d="M152.4 0.700195H163C168.6 0.700195 172.8 4.8002 172.8 11.7002C172.8 18.5002 168.6 22.8002 163 22.8002H154.4V38.4002H152.4V0.700195ZM162.8 20.6002C167.5 20.6002 170.6 17.3002 170.6 11.7002C170.6 6.0002 167.5 2.9002 162.8 2.9002H154.3V20.7002H162.8V20.6002Z" fill="white"/>
<g id="Group_3">
<path id="Vector_5" d="M44.1 2.5002L42.7 28.0002C42.7 28.7002 42.6 29.2002 42.4 29.4002C42.2 29.6002 41.9 29.8002 41.3 30.0002C41 30.0002 40.7 30.0002 40.5 29.8002C40.2 29.5002 40 28.9002 39.7 28.0002L35.5 16.0002C34.2 12.3002 33.6 11.5002 31.9 10.1002C30.3 8.9002 28.5 8.3002 26.3 8.3002C23.8 8.3002 21.5 9.1002 19.6 10.6002C17.5 12.3002 16.5 14.3002 16.3 16.9002L14.3 27.9002C14.3 28.5002 14.1 29.0002 13.9 29.3002C13.7 29.7002 13.3 29.8002 12.8 29.8002C12.5 29.8002 12.3 29.6002 12 29.3002C11.6 28.9002 11.5 28.4002 11.5 27.8002L8 12.8002L0 15.0002L2.7 28.0002C3.4 31.5002 4.6 34.2002 6.3 36.0002C7.9 37.7002 9.8 38.5002 12 38.5002C14.7 38.5002 16.9 37.9002 18.7 36.6002C20.8 35.1002 21.9 32.9002 22.1 30.0002L24.1 19.2002C24.1 18.6002 24.3 18.0002 24.6 17.7002C24.9 17.3002 25.3 17.1002 25.7 17.1002C26 17.1002 26.3 17.2002 26.6 17.5002C26.9 17.7002 27.1 18.1002 27.3 18.6002L31 29.9002C31.9 32.8002 33.1 34.9002 34.5 36.2002C36.1 37.7002 38 38.4002 40.4 38.4002C43.1 38.4002 45.3 37.8002 47.1 36.5002C49.2 35.0002 50.3 32.8002 50.5 29.9002L52.2 0.200195L44.1 2.5002Z" fill="white"/>
</g>
</g>
</g>
<defs>
<clipPath id="clip0_7539_2057">
<rect width="172.7" height="38.4" fill="white"/>
</clipPath>
</defs>
</svg>
